# xmcd
#
# Track frame offsets:
#	150
#	17949
#	36371
#	55478
#	76177
#	95064
#	112169
#	130762
#	146970
#	162779
#
# Disc length: 2408 seconds
#
# Revision: 6
# Processed by: cddbd v1.5.2PL0 Copyright (c) Steve Scherf et al.
# Submitted via: EasyCDDAExtractor 15.3.0.1
#
DISCID=8e09660a
DTITLE=Toni Braxton - Libra
DYEAR=2005
DGENRE=R&B/Hip-Hop
TTITLE0=Please
TTITLE1=Trippin' (That's The Way Love Works)
TTITLE2=What's Good
TTITLE3=Take This Ring
TTITLE4=Midnite
TTITLE5=I Wanna Be (Your Baby)
TTITLE6=Sposed To Be
TTITLE7=Stupid
TTITLE8=Finally
TTITLE9=Shadowless
EXTD=
EXTT0=
EXTT1=
EXTT2=
EXTT3=
EXTT4=
EXTT5=
EXTT6=
EXTT7=
EXTT8=
EXTT9=
PLAYORDER=
